<svg width="42" height="30" viewBox="0 0 42 30" fill="none" xmlns="http://www.w3.org/2000/svg">
<path d="M4.64197 0H37.358C40.4444 0 42 1.475 42 4.475V25.525C42 28.5 40.4444 30 37.358 30H4.64197C1.55556 30 0 28.5 0 25.525V4.475C0 1.475 1.55556 0 4.64197 0ZM20.9877 21.5L37.6296 7.675C38.2222 7.175 38.6914 6.025 37.9506 5C37.2346 3.975 35.9259 3.95 35.0617 4.575L20.9877 14.225L6.93827 4.575C6.07407 3.95 4.76543 3.975 4.04938 5C3.30864 6.025 3.77778 7.175 4.37037 7.675L20.9877 21.5Z" fill="#151414" fill-opacity="0.64"/>
</svg>
