<svg width="42" height="42" viewBox="0 0 42 42" fill="none" xmlns="http://www.w3.org/2000/svg">
<path d="M35 14H39.6667C40.2855 14 40.879 14.2107 41.3166 14.5858C41.7542 14.9609 42 15.4696 42 16V40C42 40.5304 41.7542 41.0391 41.3166 41.4142C40.879 41.7893 40.2855 42 39.6667 42H2.33333C1.71449 42 1.121 41.7893 0.683417 41.4142C0.245833 41.0391 0 40.5304 0 40V16C0 15.4696 0.245833 14.9609 0.683417 14.5858C1.121 14.2107 1.71449 14 2.33333 14H7V12C7 8.8174 8.475 5.76516 11.1005 3.51472C13.726 1.26428 17.287 0 21 0C24.713 0 28.274 1.26428 30.8995 3.51472C33.525 5.76516 35 8.8174 35 12V14ZM30.3333 14V12C30.3333 9.87827 29.35 7.84344 27.5997 6.34315C25.8493 4.84285 23.4754 4 21 4C18.5246 4 16.1507 4.84285 14.4003 6.34315C12.65 7.84344 11.6667 9.87827 11.6667 12V14H30.3333ZM18.6667 26V30H23.3333V26H18.6667ZM9.33333 26V30H14V26H9.33333ZM28 26V30H32.6667V26H28Z" fill="#151414" fill-opacity="0.64"/>
</svg>
